<svg width="221" height="232" viewBox="0 0 221 232" fill="none" xmlns="http://www.w3.org/2000/svg">
<g clip-path="url(#clip0_14_46)">
<path opacity="0.1" d="M80.4477 230.397C124.878 230.397 160.895 228.666 160.895 226.53C160.895 224.394 124.878 222.662 80.4477 222.662C36.0177 222.662 0 224.394 0 226.53C0 228.666 36.0177 230.397 80.4477 230.397Z" fill="#3E2723"/>
<path opacity="0.1" d="M59.2984 7.02108C64.4235 0.860787 72.4683 -0.394715 79.7911 0.0960049C102.792 1.63734 123.554 16.615 141.513 33.5565C148.015 39.6895 154.416 46.2991 158.636 54.7449C167.227 71.9377 164.679 95.7553 152.733 109.919C148.668 114.738 143.741 118.432 138.683 121.707C129.689 127.53 119.985 132.204 109.778 133.535C102.498 134.483 95.1294 133.712 87.8928 132.388C67.674 128.69 47.8279 120.511 31.194 106.519C23.8984 100.382 17.022 92.7521 14.0148 82.824C11.0077 72.8959 12.9322 60.315 20.3818 54.4385C23.4628 52.008 27.1466 50.9103 30.7532 49.8796C36.0619 48.3625 41.4557 46.8668 46.2464 43.7825C51.1945 40.5968 57.0536 34.4361 56.0739 27.3847C55.0227 19.8189 54.1792 13.1742 59.2984 7.02108Z" fill="#3E2723"/>
<path opacity="0.1" d="M199.484 232C211.367 232 221 230.85 221 229.432C221 228.014 211.367 226.865 199.484 226.865C187.602 226.865 177.969 228.014 177.969 229.432C177.969 230.85 187.602 232 199.484 232Z" fill="#3E2723"/>
<path d="M112.214 87.3754C111.864 86.4608 110.012 80.777 110.012 80.777L106.909 69.932C106.909 69.932 104.707 65.3588 104.707 64.5095C104.707 63.6602 100.703 60.263 100.703 60.263C100.703 60.263 97.4503 58.9564 97.2 58.8257C96.9498 58.695 93.0961 56.9755 93.0961 56.9755C93.0961 56.9755 91.5787 54.2839 91.3625 54.9868L91.3623 54.9886C91.3544 54.9709 91.3463 54.9554 91.3385 54.9372C91.0284 54.1558 90.832 53.3016 90.7599 52.4206C90.7517 52.3424 90.7446 52.2597 90.7373 52.1782C91.7368 51.2644 92.556 50.0356 93.124 48.5984C93.692 47.1612 93.9917 45.5589 93.997 43.9302C93.9963 43.5014 93.9749 43.0732 93.9329 42.6481C93.9605 42.6249 93.9892 42.6045 94.019 42.587C94.0813 42.5505 94.0655 42.5208 94.0198 42.4899C94.0354 42.4788 94.0511 42.467 94.0669 42.458C94.1497 42.4094 94.0944 42.3726 94.0142 42.3289L94.019 42.3257C94.1319 42.2595 93.9891 42.2157 93.8744 42.1457C93.8683 42.1005 93.8625 42.0551 93.8559 42.0101C93.8813 41.9241 93.8968 41.8333 93.9019 41.7409C93.912 41.7477 93.9213 41.7551 93.9321 41.7615C93.96 41.5931 93.9593 41.4184 93.93 41.2504C93.9228 41.2846 93.9141 41.3181 93.904 41.3508C93.9111 41.1985 93.8879 41.0465 93.8366 40.9104C93.7854 40.7744 93.708 40.6594 93.6126 40.5774C93.6069 40.5706 93.6006 40.5634 93.5947 40.5565L93.807 37.6256C96.9367 37.4261 97.4857 30.2442 96.7719 29.8452C96.0582 29.4463 96.7719 28.5818 96.7719 26.8528C96.7719 25.1238 94.4109 23.1953 94.4109 23.1953C94.4109 23.1953 93.4226 23.8603 91.8853 20.5354C90.3479 17.2104 84.6925 16.6784 84.3082 17.5429C83.9238 18.4074 81.3981 19.5379 78.1038 20.8014C74.8094 22.0648 75.4133 27.3183 75.9624 28.4488C76.4147 29.3834 76.6796 30.4603 76.7311 31.5742C76.7311 32.2392 77.7743 35.0322 77.7743 35.0322C77.4453 36 78.2826 41.3018 78.5306 42.8087C78.5267 42.855 78.5226 42.9011 78.5192 42.9477C78.5171 42.9522 78.5143 42.9561 78.5122 42.9607C78.5004 42.985 78.4897 43.0103 78.4802 43.0365C78.427 43.1926 78.4094 43.3666 78.4296 43.5363C78.4115 43.7218 78.4307 43.9104 78.4852 44.0825C78.504 45.5021 78.7475 46.8999 79.1994 48.1823C79.6513 49.4647 80.3011 50.602 81.1053 51.5182C81.1092 51.6088 81.113 51.7001 81.1167 51.7934C81.1628 53.0243 81.1888 54.4799 81.1408 55.8727C81.1383 55.944 81.1343 56.0138 81.1314 56.0847C80.9498 56.1342 80.7794 56.2407 80.634 56.3954C80.4885 56.5502 80.372 56.7489 80.2939 56.9755C79.9837 57.7804 78.1819 59.0217 78.1819 59.0217C78.1819 59.0217 75.0289 59.2177 74.7287 60.0017C74.4284 60.7857 69.874 63.3989 69.874 63.3989C69.874 63.3989 67.4717 65.2935 67.8221 67.4494C68.0051 68.576 67.4912 70.3261 66.9588 71.7412C65.8451 71.1716 64.6854 70.7815 63.5038 70.5792L66.0553 73.8716C66.0018 73.9842 65.9703 74.0478 65.9703 74.0478L64.5189 80.9729C64.5189 80.9729 64.0185 83.3902 63.518 83.9782C63.0175 84.5661 63.9684 89.9233 63.9684 89.9233C63.9684 89.9233 63.4179 93.7125 62.9674 94.6925C62.517 95.6725 63.6681 98.0897 63.6681 98.0897L65.9703 105.145L72.0761 107.236C72.0761 107.236 72.483 107.352 73.1405 107.542C73.1198 107.711 73.0987 107.879 73.0771 108.046C72.7828 110.294 72.3964 112.361 71.926 112.92C70.7749 114.292 70.8249 120.433 70.8249 120.433L70.875 129.122C70.875 129.122 71.2754 139.836 71.0752 140.228C70.9488 140.476 71.2024 140.879 71.8714 141.242C71.8523 141.403 71.8335 141.567 71.8159 141.733C71.6277 143.51 71.5436 145.538 71.976 146.435C72.1638 146.919 72.2665 147.456 72.2763 148.003C72.2763 148.852 73.2272 150.616 73.2272 150.616C73.2272 150.616 72.4765 157.868 73.7277 160.35C74.9789 162.833 76.0299 167.341 75.4293 168.386C75.4293 168.386 74.3783 171.456 74.8788 172.828C75.3793 174.2 74.8788 174.984 74.2282 175.311C73.5775 175.638 73.6336 178.316 73.6336 178.316L74.8287 191.056C74.8287 191.056 75.4794 193.669 74.9288 194.584C74.3783 195.498 74.3783 200.072 75.2291 201.639C76.0799 203.207 74.028 206.082 74.028 206.082C74.028 206.082 72.7768 208.499 74.7787 209.283C74.7787 209.283 75.1791 209.414 74.4284 210.459C73.6776 211.504 73.5275 212.811 74.028 213.268C74.1317 213.352 74.2403 213.425 74.3526 213.486C74.334 213.641 74.3139 213.801 74.2902 213.971C74.098 215.335 73.7357 217.112 73.0771 217.972C71.8006 219.736 70.699 221.716 69.7999 223.862C69.1133 225.619 68.813 227.262 69.5737 228.033C71.3754 229.862 73.6776 230.45 75.0289 229.732C76.3802 229.013 78.282 226.792 78.282 226.792L78.7324 224.244C78.7324 224.244 78.4322 222.676 79.9336 222.088C81.435 221.5 82.8364 219.41 82.8364 219.41V216.023C83.1999 215.743 83.5508 215.434 83.8874 215.098C83.8874 215.098 84.588 211.766 83.8874 210.655C83.1867 209.545 82.9365 209.153 83.8373 208.434C84.7382 207.715 84.8603 206.147 84.1997 204.775C83.537 203.403 82.486 201.378 83.3869 198.504C84.2877 195.629 84.6181 186.809 84.6181 186.809C84.6181 186.809 84.1977 180.799 84.6181 179.427C85.0385 178.055 84.1376 175.311 84.1376 175.311C84.1376 175.311 84.4379 171.914 84.9884 170.346C85.5389 168.778 85.9894 160.481 85.9894 160.481C85.9894 160.481 86.9903 156.953 86.9903 154.666C86.9903 152.38 85.4388 146.892 87.741 145.455C87.741 145.455 88.742 146.631 88.3416 151.335C88.3416 151.335 89.4927 156.822 89.4927 158.521C89.4927 160.22 90.3435 166.361 90.3435 166.361C90.3435 166.361 90.4436 168.321 90.7939 169.039C91.1442 169.758 90.7939 171.718 90.7939 171.718C90.7939 171.718 92.0952 173.351 91.7448 174.396C91.3945 175.442 91.8049 177.799 91.8049 177.799L91.4946 192.428C91.4946 192.428 90.5937 198.7 92.6957 202.489C92.6957 202.489 91.945 208.042 91.4946 208.434C91.0442 208.826 93.1462 212.223 93.1462 212.223C93.1462 212.223 92.5636 214.424 93.7468 214.532V218.168C94.1575 219.147 94.721 219.994 95.3983 220.651C96.4994 221.696 96.0489 225.289 96.0489 225.289C96.0489 225.289 97.4503 229.863 101.154 228.883C104.857 227.903 105.358 227.445 105.158 225.812C105.086 225.216 104.925 224.153 104.695 222.945C104.297 220.847 103.686 218.315 102.956 217.065C101.804 215.098 100.854 210.982 100.854 210.982C100.854 210.982 100.403 209.61 100.854 209.153C101.304 208.695 101.104 207.846 101.104 207.846C101.104 207.846 101.542 206.147 101.148 205.102C100.753 204.057 101.905 201.901 101.905 201.901L101.554 191.84L101.905 177.206C101.905 177.206 100.353 174.788 101.004 173.351C101.654 171.914 100.253 169.889 100.253 169.889C100.253 169.889 100.103 169.823 100.503 168.19C100.743 167.227 100.707 166.179 100.403 165.25C100.403 165.25 99.5523 161.2 101.054 158.129C101.054 158.129 101.704 154.079 101.905 151.988C102.043 150.535 102.907 145.107 103.422 141.932C103.451 141.753 103.479 141.581 103.506 141.417C104.247 141.471 104.807 141.535 104.807 141.535C104.807 141.535 103.656 130.755 104.807 128.534C105.958 126.313 103.906 109.327 103.906 109.327C103.906 109.327 103.416 106.358 103.114 103.329C103.096 103.157 103.081 102.984 103.065 102.812C103.994 102.712 104.927 102.684 105.858 102.728C108.261 102.924 110.613 101.683 110.663 100.442C110.713 99.2004 112.014 94.3006 112.214 93.1899C112.415 92.0793 112.565 88.29 112.214 87.3754Z" fill="url(#paint0_linear_14_46)"/>
<path d="M83.0115 213.407V219.456C83.0115 219.456 81.6612 221.537 80.2145 222.123C78.7678 222.708 79.0571 224.269 79.0571 224.269L78.6231 226.806C78.6231 226.806 76.7906 229.018 75.4885 229.733C74.1865 230.449 71.9681 229.863 70.2321 228.042C69.499 227.274 69.7884 225.638 70.45 223.889C71.3121 221.76 72.3733 219.789 73.6078 218.025C74.2424 217.169 74.5915 215.4 74.7767 214.041C74.9137 213.024 74.958 212.236 74.958 212.236L83.0115 213.407Z" fill="#B09D6D"/>
<path opacity="0.1" d="M83.0115 217.921V219.456C83.0115 219.456 81.6612 221.537 80.2145 222.123C78.7678 222.708 79.0571 224.269 79.0571 224.269L78.6231 226.806C78.6231 226.806 76.7906 229.018 75.4885 229.733C74.1865 230.449 71.9681 229.863 70.2321 228.042C69.499 227.274 69.7884 225.638 70.45 223.889C70.4192 225.726 70.8223 227.79 72.788 227.717C74.9094 227.626 76.9539 226.623 78.6231 224.855C78.6231 224.855 78.5749 220.562 80.7932 219.586C81.604 219.225 82.3567 218.66 83.0115 217.921Z" fill="black"/>
<path d="M100.662 228.888C97.0929 229.863 95.7427 225.31 95.7427 225.31C95.7427 225.31 96.1767 221.732 95.1158 220.692C94.4597 220.032 93.9169 219.189 93.5244 218.22V212.236L97.8645 208.073L100.214 210.878L100.372 211.065C100.372 211.065 101.288 215.163 102.398 217.122C103.102 218.366 103.69 220.887 104.074 222.976C104.296 224.178 104.45 225.237 104.519 225.83C104.712 227.457 104.23 227.912 100.662 228.888Z" fill="#B09D6D"/>
<path opacity="0.1" d="M100.662 228.887C97.0929 229.863 95.7427 225.31 95.7427 225.31C95.7427 225.31 96.1767 221.732 95.1158 220.692C94.4597 220.032 93.9169 219.189 93.5244 218.22V215.902C94.213 216.883 95.5112 218.782 95.7909 219.586C96.1767 220.692 96.2249 224.725 98.0092 225.44C99.7935 226.156 103.266 226.806 103.555 224.985C103.675 224.292 103.849 223.619 104.074 222.976C104.296 224.178 104.45 225.237 104.519 225.83C104.712 227.456 104.23 227.912 100.662 228.887Z" fill="black"/>
<path opacity="0.1" d="M74.958 212.236L83.0115 213.407V216.604C82.103 217.33 80.8009 218.1 80.0698 217.309C78.9896 216.144 75.7779 214.663 74.7767 214.041C74.9137 213.024 74.958 212.236 74.958 212.236Z" fill="black"/>
<path opacity="0.1" d="M100.372 211.585C99.263 211.065 97.2858 213.342 94.6817 214.773C94.3197 215.003 93.9245 215.122 93.5244 215.121V212.236L97.8646 208.073L100.214 210.878C100.25 211.12 100.303 211.357 100.372 211.585Z" fill="black"/>
<path d="M103.217 139.969C103.217 139.969 103.065 140.927 102.847 142.316C102.351 145.477 101.518 150.881 101.385 152.328C101.192 154.41 100.565 158.442 100.565 158.442C99.1184 161.5 99.9382 165.533 99.9382 165.533C100.231 166.46 100.266 167.5 100.035 168.46C99.6489 170.086 99.7936 170.151 99.7936 170.151C99.7936 170.151 101.144 172.167 100.517 173.598C99.89 175.029 101.385 177.436 101.385 177.436L101.047 192.006L101.385 202.023C101.385 202.023 100.276 204.17 100.656 205.211C101.036 206.251 100.613 207.943 100.613 207.943C100.613 207.943 100.806 208.788 100.372 209.244C99.9382 209.699 100.372 211.065 100.372 211.065C99.2631 210.545 97.2859 212.821 94.6818 214.252C92.0777 215.683 92.9457 212.301 92.9457 212.301C92.9457 212.301 90.9203 208.918 91.3543 208.528C91.7883 208.138 92.5117 202.609 92.5117 202.609C90.4862 198.836 91.3543 192.592 91.3543 192.592L91.6533 178.027C91.6533 178.027 91.2578 175.68 91.5954 174.639C91.933 173.598 90.6792 171.972 90.6792 171.972C90.6792 171.972 91.0167 170.021 90.6792 169.305C90.3416 168.59 90.2451 166.638 90.2451 166.638C90.2451 166.638 89.4253 160.524 89.4253 158.833C89.4253 157.142 88.3162 151.678 88.3162 151.678C88.702 146.994 87.7375 145.824 87.7375 145.824C85.5192 147.255 87.0141 152.718 87.0141 154.995C87.0141 157.272 86.0496 160.784 86.0496 160.784C86.0496 160.784 85.6156 169.045 85.0851 170.606C84.5547 172.167 84.2653 175.55 84.2653 175.55C84.2653 175.55 85.1334 178.282 84.7283 179.648C84.3232 181.014 84.7283 186.998 84.7283 186.998C84.7283 186.998 84.41 195.779 83.542 198.641C82.6739 201.503 83.6866 203.52 84.3251 204.886C84.9617 206.252 84.844 207.813 83.976 208.528C83.1079 209.244 83.3491 209.634 84.0242 210.74C84.6993 211.845 84.0242 215.163 84.0242 215.163C84.0242 215.163 81.2754 218.09 80.0698 216.789C78.8642 215.488 75.0063 213.797 74.524 213.342C74.0418 212.886 74.1865 211.585 74.9098 210.545C75.6332 209.504 75.2474 209.374 75.2474 209.374C73.3184 208.593 74.524 206.186 74.524 206.186C74.524 206.186 76.5012 203.324 75.6814 201.763C74.8616 200.202 74.8616 195.649 75.3921 194.738C75.9225 193.828 75.2956 191.226 75.2956 191.226L74.144 178.542C74.144 178.542 74.09 175.875 74.7169 175.55C75.3438 175.224 75.8261 174.444 75.3438 173.078C74.8616 171.712 75.8743 168.655 75.8743 168.655C76.453 167.614 75.4403 163.126 74.2347 160.654C73.0291 158.182 73.7524 150.962 73.7524 150.962C73.7524 150.962 72.8362 149.206 72.8362 148.36C72.8272 147.817 72.7283 147.284 72.5468 146.799C72.1302 145.907 72.2112 143.888 72.3925 142.118C72.568 140.406 72.8362 138.929 72.8362 138.929L103.217 139.969Z" fill="#272216"/>
<path d="M93.7655 66.2719L84.2653 69.2641C84.2653 69.2641 79.5875 63.9303 80.7449 61.0682C81.1423 60.0847 81.3178 58.4065 81.3776 56.6321C81.4239 55.2453 81.3988 53.7961 81.3544 52.5706C81.287 50.7987 81.1789 49.49 81.1789 49.49C81.1789 49.49 90.9202 42.0747 90.5827 49.49C90.514 50.7249 90.5354 51.9658 90.6463 53.195C90.7152 54.0697 90.9042 54.9194 91.2038 55.7006C91.7246 56.9521 92.3669 56.9703 92.3669 56.9703L93.7655 66.2719Z" fill="#FFD7CB"/>
<path opacity="0.1" d="M90.6464 53.195C89.2734 54.5234 87.6071 55.1849 85.9196 55.0715C84.232 54.9581 82.6228 54.0765 81.3545 52.5706C81.287 50.7987 81.179 49.49 81.179 49.49C81.179 49.49 90.9203 42.0747 90.5827 49.49C90.5141 50.7249 90.5354 51.9658 90.6464 53.195Z" fill="black"/>
<path d="M86.2907 54.8238C90.4189 54.8238 93.7655 50.3098 93.7655 44.7416C93.7655 39.1734 90.4189 34.6594 86.2907 34.6594C82.1625 34.6594 78.816 39.1734 78.816 44.7416C78.816 50.3098 82.1625 54.8238 86.2907 54.8238Z" fill="#FFD7CB"/>
<path opacity="0.1" d="M93.7655 66.2719L84.2653 69.264C84.2653 69.264 79.5875 63.9302 80.7449 61.0682C81.1423 60.0847 81.3178 58.4065 81.3776 56.632C81.5874 58.175 82.2015 59.5649 83.1079 60.5478C85.278 62.4992 84.9404 64.9059 84.9404 64.9059L88.8466 64.7108C88.6055 62.5642 90.0522 61.3934 90.5344 61.1332C91.0167 60.873 90.7755 59.7022 90.7755 59.7022L91.2038 55.7006C91.7246 56.9521 92.3669 56.9703 92.3669 56.9703L93.7655 66.2719Z" fill="black"/>
<path opacity="0.1" d="M103.217 139.969C103.217 139.969 103.065 140.927 102.847 142.316C101.798 142.241 100.411 142.186 99.7935 142.376C98.7326 142.701 94.4888 142.831 94.4888 142.831L83.9759 143.334V142.896C82.7667 142.91 81.559 143.018 80.3591 143.222C78.5748 143.547 75.7778 143.092 73.9935 142.701C73.4443 142.595 72.9067 142.399 72.3925 142.118C72.568 140.406 72.8361 138.929 72.8361 138.929L103.217 139.969Z" fill="black"/>
<path d="M102.398 98.6649C102.245 99.88 102.357 101.894 102.55 103.882C102.841 106.897 103.314 109.853 103.314 109.853C103.314 109.853 105.291 126.765 104.182 128.976C103.073 131.188 104.182 141.921 104.182 141.921C104.182 141.921 100.854 141.53 99.7935 141.856C98.7326 142.181 94.4888 142.311 94.4888 142.311L83.976 142.813V142.376C82.7667 142.389 81.559 142.498 80.3591 142.701C78.5748 143.026 75.7778 142.571 73.9935 142.181C72.2092 141.791 71.4859 141.01 71.6788 140.62C71.8717 140.229 71.4859 129.562 71.4859 129.562L71.4376 120.911C71.4376 120.911 71.3894 114.796 72.4986 113.43C72.9519 112.874 73.3242 110.816 73.6077 108.578C74.0148 105.339 74.2347 101.722 74.2347 101.722L66.9046 75.2483L66.7599 74.7279C66.7599 74.7279 68.8818 70.3048 68.5442 68.1582C68.2066 66.0117 70.5214 64.1254 70.5214 64.1254C70.5214 64.1254 74.9098 61.5235 75.1991 60.7429C75.4885 59.9624 78.5266 59.7673 78.5266 59.7673C78.5266 59.7673 80.2627 58.5314 80.5617 57.73C80.6345 57.5062 80.7457 57.3089 80.8863 57.1546C81.0268 57.0003 81.1926 56.8934 81.3699 56.8428C81.5743 58.4047 82.1918 59.8136 83.1079 60.808C85.278 62.7594 84.9404 65.1661 84.9404 65.1661L88.8466 64.971C88.6055 62.8244 90.0522 61.6536 90.5345 61.3934C91.0167 61.1332 90.7756 59.9624 90.7756 59.9624L91.227 55.75C91.4353 55.0501 92.8974 57.73 92.8974 57.73C92.8974 57.73 96.6107 59.442 96.8518 59.5721C97.093 59.7022 100.228 61.0032 100.228 61.0032C100.228 61.0032 104.085 64.3856 104.085 65.2312C104.085 66.0768 106.207 70.63 106.207 70.63C106.207 70.63 106.182 70.8121 106.136 71.1452C105.646 74.7305 102.751 95.8679 102.398 98.6649Z" fill="#3E2723"/>
<path d="M86.9659 88.1275C86.9659 88.1275 78.6231 85.1353 77.8032 84.4198C76.9834 83.7043 72.161 87.8673 78.0444 93.5263C78.0444 93.5263 85.2386 95.5427 87.1631 93.5263C89.0877 91.5099 86.9659 88.1275 86.9659 88.1275Z" fill="#FFD7CB"/>
<path opacity="0.1" d="M105.002 70.3048L106.014 70.3699L109.004 81.1675C109.004 81.1675 110.789 86.8266 111.126 87.7372C111.464 88.6479 111.319 92.4205 111.126 93.5263C110.933 94.6321 109.679 99.5106 109.631 100.746C109.583 101.982 107.316 103.218 105.002 103.023C102.687 102.828 97.2858 103.804 97.2858 103.804C97.2858 103.804 91.5176 102.99 87.9786 105.43C87.9786 105.43 85.712 99.1203 85.9531 87.3469C85.9531 87.3469 89.9558 87.0217 90.9685 87.5421C91.9812 88.0624 96.9 89.5585 97.527 88.778C98.1539 87.9974 100.999 90.209 100.999 90.209C101.144 89.7801 101.219 89.3143 101.219 88.843C101.219 88.3717 101.144 87.9059 100.999 87.477C100.517 85.9159 99.6971 81.0374 100.758 79.4763C101.819 77.9152 105.002 70.3048 105.002 70.3048Z" fill="black"/>
<path opacity="0.1" d="M102.55 103.882C100.156 104.1 97.4787 104.584 97.4787 104.584C97.4787 104.584 91.7111 103.77 88.1714 106.21C88.1714 106.21 85.9049 99.9008 86.146 88.1274C86.146 88.1274 90.1486 87.8022 91.1613 88.3226C92.174 88.843 97.0929 90.339 97.7198 89.5585C98.3467 88.7779 101.192 90.9895 101.192 90.9895C101.337 90.5606 101.412 90.0948 101.412 89.6235C101.412 89.1522 101.337 88.6865 101.192 88.2575C100.71 86.6964 99.8899 81.818 100.951 80.2568C102.012 78.6957 105.195 71.0853 105.195 71.0853L106.136 71.1452C105.646 74.7305 102.751 95.8679 102.398 98.6649C102.245 99.88 102.357 101.894 102.55 103.882Z" fill="black"/>
<path d="M105.195 70.5649L106.207 70.63L109.197 81.4277C109.197 81.4277 110.982 87.0867 111.319 87.9973C111.657 88.908 111.512 92.6807 111.319 93.7865C111.126 94.8922 109.872 99.7707 109.824 101.007C109.776 102.242 107.509 103.478 105.195 103.283C102.88 103.088 97.4787 104.064 97.4787 104.064C97.4787 104.064 91.7105 103.251 88.1714 105.69C88.1714 105.69 85.9049 99.3804 86.146 87.6071C86.146 87.6071 90.1486 87.2818 91.1613 87.8022C92.174 88.3226 97.0929 89.8186 97.7198 89.0381C98.3467 88.2575 101.192 90.4691 101.192 90.4691C101.337 90.0402 101.412 89.5744 101.412 89.1031C101.412 88.6319 101.337 88.1661 101.192 87.7372C100.71 86.176 99.8899 81.2976 100.951 79.7365C102.012 78.1754 105.195 70.5649 105.195 70.5649Z" fill="#3E2723"/>
<path d="M95.0062 94.4572L96.2095 95.4622L102.915 80.8548L101.712 79.8498L95.0062 94.4572Z" fill="#DFE6F5"/>
<path d="M106.353 78.8767C107.538 76.2951 107.411 73.2934 106.069 72.1723C104.726 71.0511 102.677 72.235 101.492 74.8166C100.307 77.3982 100.435 80.3998 101.777 81.521C103.119 82.6421 105.168 81.4582 106.353 78.8767Z" fill="#DFE6F5"/>
<path opacity="0.1" d="M105.667 78.3037C106.518 76.4506 106.427 74.296 105.463 73.4913C104.499 72.6865 103.029 73.5363 102.178 75.3894C101.327 77.2424 101.419 79.397 102.383 80.2018C103.346 81.0065 104.817 80.1567 105.667 78.3037Z" fill="black"/>
<path d="M91.5789 101.923L92.7822 102.928L96.9545 93.8392L95.7512 92.8342L91.5789 101.923Z" fill="#53526B"/>
<path d="M84.5064 102.568L87.4481 101.462C87.4481 101.462 101.964 101.982 97.0929 93.9166C97.0929 93.9166 94.537 90.5992 89.1841 93.2661C83.8313 95.933 82.3363 96.2582 82.3363 96.2582L84.5064 102.568Z" fill="#FFD7CB"/>
<path opacity="0.1" d="M82.3363 68.5485C82.6559 68.5485 82.915 68.1991 82.915 67.768C82.915 67.3369 82.6559 66.9874 82.3363 66.9874C82.0167 66.9874 81.7576 67.3369 81.7576 67.768C81.7576 68.1991 82.0167 68.5485 82.3363 68.5485Z" fill="black"/>
<path opacity="0.1" d="M92.2705 68.0932C92.5901 68.0932 92.8492 67.7437 92.8492 67.3127C92.8492 66.8816 92.5901 66.5321 92.2705 66.5321C91.9509 66.5321 91.6918 66.8816 91.6918 67.3127C91.6918 67.7437 91.9509 68.0932 92.2705 68.0932Z" fill="black"/>
<path d="M82.3363 68.2883C82.6559 68.2883 82.915 67.9388 82.915 67.5077C82.915 67.0766 82.6559 66.7272 82.3363 66.7272C82.0167 66.7272 81.7576 67.0766 81.7576 67.5077C81.7576 67.9388 82.0167 68.2883 82.3363 68.2883Z" fill="white"/>
<path opacity="0.1" d="M83.1561 79.3461C83.4757 79.3461 83.7348 78.9967 83.7348 78.5656C83.7348 78.1345 83.4757 77.785 83.1561 77.785C82.8365 77.785 82.5775 78.1345 82.5775 78.5656C82.5775 78.9967 82.8365 79.3461 83.1561 79.3461Z" fill="black"/>
<path opacity="0.1" d="M92.5599 78.5656C92.8795 78.5656 93.1386 78.2162 93.1386 77.7851C93.1386 77.354 92.8795 77.0045 92.5599 77.0045C92.2403 77.0045 91.9812 77.354 91.9812 77.7851C91.9812 78.2162 92.2403 78.5656 92.5599 78.5656Z" fill="black"/>
<path d="M83.1561 79.086C83.4757 79.086 83.7348 78.7366 83.7348 78.3055C83.7348 77.8744 83.4757 77.5249 83.1561 77.5249C82.8365 77.5249 82.5775 77.8744 82.5775 78.3055C82.5775 78.7366 82.8365 79.086 83.1561 79.086Z" fill="white"/>
<path opacity="0.1" d="M92.3187 116.232C92.6383 116.232 92.8974 115.882 92.8974 115.451C92.8974 115.02 92.6383 114.671 92.3187 114.671C91.9991 114.671 91.7401 115.02 91.7401 115.451C91.7401 115.882 91.9991 116.232 92.3187 116.232Z" fill="black"/>
<path opacity="0.1" d="M84.7027 116.232C85.0223 116.232 85.2813 115.882 85.2813 115.451C85.2813 115.02 85.0223 114.671 84.7027 114.671C84.3831 114.671 84.124 115.02 84.124 115.451C84.124 115.882 84.3831 116.232 84.7027 116.232Z" fill="black"/>
<path d="M92.3187 115.972C92.6383 115.972 92.8974 115.622 92.8974 115.191C92.8974 114.76 92.6383 114.411 92.3187 114.411C91.9991 114.411 91.7401 114.76 91.7401 115.191C91.7401 115.622 91.9991 115.972 92.3187 115.972Z" fill="white"/>
<path opacity="0.1" d="M85.2813 129.302C85.6009 129.302 85.86 128.952 85.86 128.521C85.86 128.09 85.6009 127.741 85.2813 127.741C84.9617 127.741 84.7026 128.09 84.7026 128.521C84.7026 128.952 84.9617 129.302 85.2813 129.302Z" fill="black"/>
<path opacity="0.1" d="M92.5599 128.521C92.8795 128.521 93.1386 128.172 93.1386 127.741C93.1386 127.31 92.8795 126.96 92.5599 126.96C92.2403 126.96 91.9812 127.31 91.9812 127.741C91.9812 128.172 92.2403 128.521 92.5599 128.521Z" fill="black"/>
<path d="M85.2813 129.042C85.6009 129.042 85.86 128.692 85.86 128.261C85.86 127.83 85.6009 127.48 85.2813 127.48C84.9617 127.48 84.7026 127.83 84.7026 128.261C84.7026 128.692 84.9617 129.042 85.2813 129.042Z" fill="white"/>
<path d="M84.7027 115.972C85.0223 115.972 85.2813 115.622 85.2813 115.191C85.2813 114.76 85.0223 114.411 84.7027 114.411C84.3831 114.411 84.124 114.76 84.124 115.191C84.124 115.622 84.3831 115.972 84.7027 115.972Z" fill="white"/>
<path d="M92.5599 128.261C92.8795 128.261 93.1386 127.911 93.1386 127.48C93.1386 127.049 92.8795 126.7 92.5599 126.7C92.2403 126.7 91.9812 127.049 91.9812 127.48C91.9812 127.911 92.2403 128.261 92.5599 128.261Z" fill="white"/>
<path d="M92.2705 67.833C92.5901 67.833 92.8492 67.4835 92.8492 67.0524C92.8492 66.6213 92.5901 66.2719 92.2705 66.2719C91.9509 66.2719 91.6918 66.6213 91.6918 67.0524C91.6918 67.4835 91.9509 67.833 92.2705 67.833Z" fill="white"/>
<path d="M92.5599 78.3055C92.8795 78.3055 93.1386 77.956 93.1386 77.5249C93.1386 77.0939 92.8795 76.7444 92.5599 76.7444C92.2403 76.7444 91.9812 77.0939 91.9812 77.5249C91.9812 77.956 92.2403 78.3055 92.5599 78.3055Z" fill="white"/>
<path opacity="0.1" d="M93.4279 104.909C93.4279 104.909 93.5244 122.732 93.8137 125.919C93.8137 125.919 93.9187 105.75 93.4279 104.909Z" fill="black"/>
<path opacity="0.1" d="M95.8873 113.17C95.6885 113.17 99.8417 134.05 100.035 135.546C100.228 137.042 97.0447 113.17 95.8873 113.17Z" fill="black"/>
<path opacity="0.1" d="M99.1666 109.788C99.1666 109.983 101.481 121.106 102.639 121.691C103.796 122.277 99.1666 109.788 99.1666 109.788Z" fill="black"/>
<path opacity="0.1" d="M108.281 88.1274C108.281 88.1274 103.362 88.4232 103.217 89.3811C103.073 90.339 108.281 88.1274 108.281 88.1274Z" fill="black"/>
<path opacity="0.1" d="M99.6006 172.948C99.6006 172.948 96.0803 174.964 96.6107 175.094C97.1412 175.224 99.6006 172.948 99.6006 172.948Z" fill="black"/>
<path opacity="0.1" d="M92.3187 169.956C92.1816 169.54 94.6817 171.647 94.6817 171.907C94.6817 172.167 92.5116 170.541 92.3187 169.956Z" fill="black"/>
<path opacity="0.1" d="M95.598 176.786C95.598 176.786 98.3468 176.598 98.5397 178.025C98.7326 179.452 95.598 176.786 95.598 176.786Z" fill="black"/>
<path opacity="0.1" d="M75.826 176.777C75.826 176.777 78.816 175.989 79.0571 176.777C79.2982 177.566 75.826 176.777 75.826 176.777Z" fill="black"/>
<path opacity="0.1" d="M76.9352 201.308C76.9352 201.308 77.1312 204.625 76.4063 205.406C75.6814 206.186 76.9352 201.308 76.9352 201.308Z" fill="black"/>
<path opacity="0.1" d="M76.57 208.333C77.5139 208.463 82.481 207.292 82.4328 208.333C82.3845 209.374 76.57 208.333 76.57 208.333Z" fill="black"/>
<path opacity="0.1" d="M99.3595 204.3C99.3595 204.3 97.6654 203.949 98.0784 205.49L99.3595 204.3Z" fill="black"/>
<path opacity="0.1" d="M67.8691 74.4678H66.9528L65.5543 81.3627C65.5543 81.3627 65.072 83.7694 64.5898 84.3548C64.1076 84.9402 65.0238 90.274 65.0238 90.274C65.0238 90.274 64.4934 94.0467 64.0593 95.0224C63.6253 95.9981 64.7345 98.4048 64.7345 98.4048L66.9528 105.43L72.8361 107.511C72.8361 107.511 83.2044 110.568 83.6866 111.024C84.1689 111.479 84.6029 110.829 84.9404 106.601C85.278 102.373 86.1943 94.1768 86.9176 93.7865C86.9176 93.7865 81.1307 94.6321 80.6485 94.502C80.1662 94.3719 77.8515 94.5671 77.8515 94.5671C77.8515 94.5671 74.8133 94.3069 74.3311 94.6972C73.8489 95.0874 74.958 92.8079 74.958 92.8079C75.1611 91.7641 75.1611 90.6673 74.958 89.6236C74.6204 87.8673 74.4276 67.9631 67.8691 74.4678Z" fill="black"/>
<path opacity="0.1" d="M86.7247 94.567C86.0014 94.9573 85.0851 103.153 84.7475 107.381C84.41 111.609 83.9759 112.26 83.4937 111.804C83.1021 111.435 76.1906 109.348 73.6077 108.578C74.0147 105.339 74.2346 101.722 74.2346 101.722L66.9045 75.2483H67.6761C74.2346 68.7437 74.4275 88.6478 74.7651 90.4041C74.9681 91.4479 74.9681 92.5448 74.7651 93.5887C74.7651 93.5887 73.6559 95.8679 74.1382 95.4777C74.6204 95.0874 77.6586 95.3476 77.6586 95.3476C77.6586 95.3476 79.9733 95.1524 80.4556 95.2825C80.9378 95.4126 86.7247 94.567 86.7247 94.567Z" fill="black"/>
<path d="M67.6762 74.7279H66.7599L65.3614 81.6228C65.3614 81.6228 64.8792 84.0295 64.3969 84.6149C63.9147 85.2003 64.831 90.5341 64.831 90.5341C64.831 90.5341 64.3005 94.3068 63.8665 95.2825C63.4324 96.2582 64.5416 98.6649 64.5416 98.6649L66.7599 105.69L72.6433 107.771C72.6433 107.771 83.0115 110.829 83.4937 111.284C83.976 111.739 84.41 111.089 84.7476 106.861C85.0852 102.633 86.0014 94.4369 86.7248 94.0467C86.7248 94.0467 80.9379 94.8923 80.4556 94.7622C79.9734 94.6321 77.6586 94.8272 77.6586 94.8272C77.6586 94.8272 74.6205 94.567 74.1382 94.9573C73.656 95.3476 74.7652 93.068 74.7652 93.068C74.9682 92.0243 74.9682 90.9275 74.7652 89.8837C74.4276 88.1274 74.2347 68.2233 67.6762 74.7279Z" fill="#3E2723"/>
<path opacity="0.1" d="M70.8107 98.2747C70.8107 98.2747 68.1584 105.039 67.6762 104.259C67.1939 103.478 70.8107 98.2747 70.8107 98.2747Z" fill="black"/>
<path opacity="0.1" d="M68.0619 94.4225C68.0619 94.4225 65.6025 97.1689 66.7599 97.8844C67.9173 98.5999 68.0619 94.4225 68.0619 94.4225Z" fill="black"/>
<path opacity="0.1" d="M70.3767 91.0546C70.5696 91.1196 73.9453 92.024 73.9935 92.4174C74.0417 92.8108 70.3767 91.0546 70.3767 91.0546Z" fill="black"/>
<path opacity="0.1" d="M93.7867 43.4043C93.6819 43.454 93.5924 43.5498 93.5326 43.6762C93.4728 43.8026 93.4462 43.9523 93.4569 44.1016C93.2601 44.3357 92.9843 44.0599 92.8242 43.7607C92.6621 43.4641 92.4789 43.0973 92.2339 43.1389C92.1175 43.1889 92.0046 43.2525 91.8963 43.3288C91.5106 43.4953 91.1845 42.8839 90.9685 42.3479C90.5924 41.4087 90.2162 40.4703 89.84 39.5327C89.0858 40.1233 88.1946 39.5041 87.4462 38.8927C86.6978 38.2812 85.8066 37.6594 85.0504 38.25C83.9413 39.1138 83.9007 41.9941 82.7511 42.7044C82.3807 42.9333 81.9506 42.8839 81.6072 43.1987C81.2677 43.5109 81.0844 44.112 80.932 44.687C80.8757 45.0143 80.7432 45.3088 80.554 45.5274C80.4338 45.6122 80.3 45.6559 80.1643 45.6549C79.8235 45.733 79.473 45.6666 79.1613 45.4649C78.9978 45.3264 78.8744 45.1168 78.8112 44.8708C78.7481 44.6248 78.7491 44.3571 78.814 44.112C78.8232 44.086 78.8335 44.0608 78.8449 44.0365C78.9685 43.835 79.0794 43.6201 79.1767 43.3939C79.2924 42.9802 79.1265 42.4988 79.1632 42.0513C79.223 41.2864 79.8229 40.8831 79.9251 40.1311C79.9676 39.8371 79.9232 39.5223 79.9637 39.2257C79.9694 39.1868 79.9771 39.1486 79.9869 39.1112L79.6339 39.439C80.0293 38.8172 80.228 37.9534 80.5173 37.1989C80.8388 36.3727 81.2811 35.6431 81.8175 35.0541C82.354 34.4651 82.9734 34.029 83.6384 33.7722C84.8961 33.2779 86.2252 33.4131 87.4944 33.8321C88.7014 34.2376 89.8576 34.8802 90.9261 35.7392C91.3077 36.0153 91.6469 36.3871 91.9253 36.8346C92.1585 37.2986 92.3569 37.7928 92.5175 38.3098C92.8917 39.3558 93.914 40.3237 93.1 40.4694C92.423 40.5917 93.0402 41.2317 93.3952 41.6636C93.4752 41.7483 93.5443 41.8503 93.5996 41.9654C93.6585 42.13 93.6856 42.312 93.6781 42.4945C93.6707 42.677 93.6291 42.8539 93.5572 43.0088C93.4202 43.243 93.9758 43.2898 93.7867 43.4043Z" fill="black"/>
<path d="M93.7867 43.144C93.6819 43.1938 93.5924 43.2895 93.5326 43.4159C93.4728 43.5423 93.4462 43.6921 93.4569 43.8413C93.2601 44.0755 92.9843 43.7997 92.8242 43.5005C92.6621 43.2039 92.4789 42.837 92.2339 42.8786C92.1175 42.9287 92.0046 42.9923 91.8964 43.0686C91.5106 43.2351 91.1845 42.6237 90.9685 42.0877C90.5924 41.1484 90.2162 40.21 89.84 39.2725C89.0858 39.8631 88.1946 39.2439 87.4462 38.6324C86.6978 38.021 85.8066 37.3991 85.0504 37.9898C83.9413 38.8536 83.9007 41.7338 82.7511 42.4441C82.3807 42.6731 81.9506 42.6237 81.6072 42.9385C81.2677 43.2507 81.0844 43.8517 80.932 44.4267C80.8757 44.7541 80.7432 45.0485 80.554 45.2671C80.4338 45.3519 80.3 45.3957 80.1643 45.3946C79.8235 45.4728 79.473 45.4064 79.1613 45.2047C78.9978 45.0662 78.8744 44.8566 78.8112 44.6106C78.7481 44.3646 78.7491 44.0969 78.814 43.8517C78.8232 43.8257 78.8335 43.8006 78.8449 43.7763C78.9685 43.5748 79.0794 43.3598 79.1767 43.1336C79.2924 42.7199 79.1265 42.2386 79.1632 41.7911C79.223 41.0261 79.8229 40.6228 79.9251 39.8709C79.9676 39.5769 79.9232 39.2621 79.9637 38.9655C79.9694 38.9266 79.9771 38.8883 79.9869 38.851L79.6339 39.1788C80.0293 38.557 80.228 37.6932 80.5173 36.9386C80.8388 36.1125 81.2811 35.3828 81.8175 34.7939C82.354 34.2049 82.9734 33.7688 83.6384 33.512C84.8961 33.0176 86.2252 33.1529 87.4944 33.5718C88.7014 33.9774 89.8576 34.62 90.9261 35.479C91.3077 35.7551 91.6469 36.1268 91.9253 36.5743C92.1585 37.0383 92.3569 37.5325 92.5175 38.0496C92.8917 39.0955 93.9141 40.0634 93.1 40.2091C92.423 40.3314 93.0402 40.9715 93.3952 41.4034C93.4752 41.4881 93.5443 41.59 93.5996 41.7052C93.6585 41.8697 93.6856 42.0518 93.6781 42.2342C93.6707 42.4167 93.6291 42.5937 93.5572 42.7485C93.4202 42.9827 93.9758 43.0295 93.7867 43.144Z" fill="#5E5236"/>
<path opacity="0.1" d="M93.3951 41.4034L93.318 42.4988C93.318 42.4988 85.224 28.6621 78.9279 44.2862C78.9279 44.2862 78.897 44.0963 78.8449 43.7763C78.9685 43.5748 79.0794 43.3598 79.1767 43.1336C79.2924 42.7199 79.1265 42.2386 79.1632 41.7911C79.223 41.0261 79.8229 40.6228 79.9251 39.8709C79.9676 39.5769 79.9232 39.2621 79.9637 38.9655C79.9694 38.9266 79.9771 38.8883 79.9869 38.851L79.6339 39.1788C80.0293 38.557 80.228 37.6932 80.5173 36.9386C80.8388 36.1125 81.2811 35.3828 81.8175 34.7939C82.354 34.2049 82.9734 33.7688 83.6384 33.512C84.8961 33.0176 86.2251 33.1529 87.4944 33.5718C88.7014 33.9774 89.8576 34.62 90.9261 35.479C91.3078 35.7551 91.6469 36.1268 91.9253 36.5743C92.1585 37.0383 92.3569 37.5325 92.5175 38.0496C92.8917 39.0955 93.914 40.0634 93.1 40.2091C92.4229 40.3314 93.0402 40.9715 93.3951 41.4034Z" fill="black"/>
<g opacity="0.1">
<path d="M93.5947 43.0023C93.5548 43.0629 93.5258 43.135 93.5099 43.2131C93.494 43.2912 93.4916 43.3732 93.503 43.4527C93.3062 43.6869 93.0304 43.4111 92.8703 43.1118C92.7083 42.8152 92.525 42.4484 92.28 42.49C92.1636 42.5401 92.0507 42.6036 91.9424 42.6799C91.5566 42.8465 91.2306 42.235 91.0146 41.699C90.6385 40.7598 90.2623 39.8214 89.8862 38.8838C89.1319 39.4745 88.2407 38.8552 87.4923 38.2438C86.7439 37.6323 85.8527 37.0105 85.0965 37.6011C83.9874 38.4649 83.9468 41.3452 82.7972 42.0555C82.4268 42.2845 81.9967 42.235 81.6533 42.5499C81.3138 42.8621 81.1306 43.4631 80.9782 44.0381C80.9218 44.3654 80.7893 44.6599 80.6001 44.8785C80.4799 44.9633 80.3461 45.0071 80.2104 45.006C79.8696 45.0841 79.5191 45.0178 79.2074 44.8161C79.0205 44.6489 78.8865 44.3939 78.8315 44.1008C78.7932 44.3339 78.8086 44.5772 78.8758 44.7981C78.943 45.0189 79.0587 45.2068 79.2074 45.3364C79.5191 45.5381 79.8696 45.6045 80.2104 45.5264C80.3461 45.5274 80.4799 45.4837 80.6001 45.3989C80.7893 45.1803 80.9218 44.8858 80.9782 44.5585C81.1306 43.9835 81.3138 43.3824 81.6533 43.0702C81.9967 42.7554 82.4268 42.8048 82.7972 42.5759C83.9468 41.8656 83.9874 38.9853 85.0965 38.1215C85.8527 37.5309 86.7439 38.1527 87.4923 38.7641C88.2407 39.3756 89.1319 39.9948 89.8862 39.4042C90.2623 40.3409 90.6384 41.2793 91.0146 42.2194C91.2306 42.7554 91.5566 43.3668 91.9424 43.2003C92.0507 43.124 92.1636 43.0604 92.28 43.0104C92.525 42.9687 92.7083 43.3356 92.8703 43.6322C93.0304 43.9314 93.3062 44.2072 93.503 43.9731C93.4923 43.8238 93.5189 43.674 93.5787 43.5476C93.6385 43.4212 93.728 43.3255 93.8328 43.2758C93.9832 43.1847 93.6634 43.1361 93.5947 43.0023Z" fill="black"/>
<path d="M92.964 40.4029C93.0224 40.3712 93.0836 40.3504 93.1461 40.3409C93.505 40.2766 93.5065 40.0523 93.3644 39.7322C93.2968 39.7813 93.2226 39.8114 93.1461 39.8205C92.7588 39.8904 92.7956 40.1299 92.964 40.4029Z" fill="black"/>
<path d="M93.7029 42.5823C93.7298 42.4145 93.7291 42.2409 93.7009 42.0735C93.6838 42.1772 93.6504 42.2748 93.6032 42.3599C93.5428 42.4632 93.6172 42.53 93.7029 42.5823Z" fill="black"/>
<path d="M79.2206 41.8328C79.2164 41.8625 79.2117 41.8919 79.2093 41.9228C79.2014 42.1571 79.2141 42.3918 79.2473 42.6222C79.2702 42.3588 79.2612 42.0923 79.2206 41.8328Z" fill="black"/>
<path d="M80.0036 38.6584C79.9128 38.8904 79.8043 39.109 79.6799 39.3106L79.9913 39.0215C79.9898 38.9002 79.9939 38.779 80.0036 38.6584Z" fill="black"/>
</g>
<path d="M78.9274 44.026C78.9274 44.026 77.7635 37.0079 78.1338 35.8823C78.1338 35.8823 77.1286 33.1015 77.1286 32.4394C77.0798 31.3346 76.8251 30.2642 76.3879 29.3276C75.8589 28.202 75.2769 22.9715 78.4513 21.7135C81.6256 20.4556 84.0593 19.33 84.4296 18.4693C84.8 17.6086 90.2493 18.1382 91.7307 21.4487C93.2121 24.7592 94.1644 24.0971 94.1644 24.0971C94.1644 24.0971 96.4393 26.0171 96.4393 27.7386C96.4393 29.46 95.7515 30.3207 96.4393 30.718C97.1271 31.1152 96.598 38.2658 93.5824 38.4645L93.3179 42.2384C93.3179 42.2384 85.2232 28.4007 78.9274 44.026Z" fill="#3E2723"/>
<path opacity="0.1" d="M79.2741 23.0812C79.2741 23.0812 78.5749 28.6101 79.8528 30.4639L79.2741 23.0812Z" fill="black"/>
<path opacity="0.1" d="M82.5533 21.8127C82.5533 21.8127 80.769 27.732 81.2031 28.8703L82.5533 21.8127Z" fill="black"/>
<path opacity="0.1" d="M84.0965 19.9264C84.0965 19.9264 82.8909 27.6344 83.4696 28.2523L84.0965 19.9264Z" fill="black"/>
<path opacity="0.1" d="M86.1701 22.0079C86.1701 22.0079 84.6752 26.9515 85.278 27.6344L86.1701 22.0079Z" fill="black"/>
<path opacity="0.1" d="M88.9913 22.5934C88.9913 22.5934 87.2311 26.6263 87.5928 27.3418L88.9913 22.5934Z" fill="black"/>
<path opacity="0.1" d="M92.6081 26.5287C92.6081 26.5287 90.7273 27.2117 91.1131 28.0247L92.6081 26.5287Z" fill="black"/>
<path opacity="0.1" d="M94.3924 30.7241C94.3924 30.7241 92.7045 31.8299 93.018 32.4153L94.3924 30.7241Z" fill="black"/>
<path opacity="0.1" d="M78.1339 35.8824C78.1339 35.8824 88.9145 29.9759 93.5824 38.4645C93.5824 38.4645 87.9164 31.9666 78.1339 35.8824Z" fill="black"/>
<path d="M74.238 84.4141L75.7402 82.3645L79.9873 88.0271L78.4851 90.0771L74.5792 84.8693L74.238 84.4141Z" fill="#53526B"/>
<path d="M64.3833 71.2744C64.3833 71.2744 70.958 72.0291 77.0771 81.3192L74.5267 84.7992L64.3833 71.2744Z" fill="#DFE6F5"/>
<path d="M84.1037 87.8854C84.1037 87.8854 77.7844 84.7782 77.1635 84.0352C76.5425 83.2922 72.8898 87.6152 77.3461 93.4918C77.3461 93.4918 82.7953 95.5857 84.2531 93.4918C85.7109 91.3978 84.1037 87.8854 84.1037 87.8854Z" fill="#FFD7CB"/>
<path d="M201.076 147.272H199.791V186.267H201.076V147.272Z" fill="#535461"/>
<path d="M209.146 186.149L209.064 187.905L208.951 190.383L208.904 191.417L208.79 193.899L208.741 194.933L208.628 197.411L207.332 225.606C207.276 226.819 206.88 227.958 206.223 228.79C205.567 229.623 204.7 230.086 203.799 230.086H197.068C196.167 230.086 195.3 229.623 194.644 228.79C193.988 227.958 193.592 226.819 193.536 225.606L192.239 197.411L192.125 194.933L192.078 193.899L191.962 191.417L191.915 190.383L191.802 187.905L191.72 186.149C191.705 185.812 191.741 185.474 191.826 185.156C191.911 184.839 192.043 184.548 192.215 184.302C192.387 184.056 192.594 183.86 192.823 183.726C193.053 183.592 193.301 183.523 193.551 183.523H207.317C207.567 183.523 207.815 183.592 208.045 183.726C208.274 183.86 208.481 184.056 208.653 184.302C208.824 184.548 208.956 184.839 209.041 185.157C209.126 185.474 209.161 185.812 209.146 186.149Z" fill="#B09D6D"/>
<path d="M209.064 187.905L208.951 190.383H191.915L191.802 187.905H209.064Z" fill="#E8B9AB"/>
<path d="M208.904 191.417L208.79 193.899H192.078L191.962 191.417H208.904Z" fill="#E8B9AB"/>
<path d="M208.741 194.933L208.628 197.411H192.239L192.125 194.933H208.741Z" fill="#E8B9AB"/>
<path d="M189.841 161.888C197.319 169.185 200.433 180.599 200.433 180.599C200.433 180.599 191.422 180.182 183.943 172.885C176.464 165.588 173.35 154.174 173.35 154.174C173.35 154.174 182.362 154.591 189.841 161.888Z" fill="#3E2723"/>
<path d="M173.35 154.174C173.35 154.174 182.704 161.178 185.704 166.975C188.705 172.773 200.433 180.599 200.433 180.599" stroke="#535461" stroke-width="2" stroke-miterlimit="10"/>
<path d="M194.668 147.186C198.738 151.157 200.433 157.37 200.433 157.37C200.433 157.37 195.528 157.143 191.458 153.171C187.387 149.2 185.692 142.987 185.692 142.987C185.692 142.987 190.597 143.214 194.668 147.186Z" fill="#3E2723"/>
<path d="M185.692 142.987C185.692 142.987 190.783 146.799 192.416 149.955C194.05 153.11 200.433 157.37 200.433 157.37" stroke="#535461" stroke-width="2" stroke-miterlimit="10"/>
<path d="M206.348 157.054C201.673 163.985 200.684 173.042 200.684 173.042C200.684 173.042 207.275 170.861 211.951 163.929C216.626 156.998 217.615 147.941 217.615 147.941C217.615 147.941 211.024 150.122 206.348 157.054Z" fill="#3E2723"/>
<path d="M217.615 147.941C217.615 147.941 211.525 155.046 209.977 159.941C208.429 164.837 200.684 173.042 200.684 173.042" stroke="#535461" stroke-width="2" stroke-miterlimit="10"/>
</g>
<defs>
<linearGradient id="paint0_linear_14_46" x1="87.6437" y1="230.03" x2="87.6437" y2="17.1755" gradientUnits="userSpaceOnUse">
<stop stop-color="#808080" stop-opacity="0.25"/>
<stop offset="0.53514" stop-color="#808080" stop-opacity="0.12"/>
<stop offset="1" stop-color="#808080" stop-opacity="0.1"/>
</linearGradient>
<clipPath id="clip0_14_46">
<rect width="221" height="232" fill="white"/>
</clipPath>
</defs>
</svg>
