<svg width="211" height="232" viewBox="0 0 211 232" fill="none" xmlns="http://www.w3.org/2000/svg">
<g clip-path="url(#clip0_15_138)">
<path d="M102.871 170.751C107.894 172.753 111.157 177.688 110.159 181.772C109.161 185.856 104.281 187.543 99.257 185.539C97.2413 184.774 95.3984 183.403 93.8824 181.541L72.6842 172.714L76.138 160.092L96.669 170.134C98.7453 169.704 100.872 169.915 102.871 170.751Z" fill="#FFD7CB"/>
<path d="M57.4588 78.1356C52.4042 77.3706 47.7502 81.7357 46.8086 88.1271C43.4501 110.924 36.3169 160.221 37.2562 161.421C38.4792 162.984 84.1361 180.173 84.1361 180.173L89.4355 165.588L59.2694 146.837L65.8852 92.3121C66.7251 85.3902 62.9027 78.9594 57.4588 78.1356Z" fill="#DCCBA1"/>
<path d="M112.464 194.464C107.563 196.91 102.603 195.661 101.385 191.676C100.167 187.69 103.153 182.477 108.056 180.031C110.004 179.02 112.113 178.619 114.207 178.863L135.075 168.834L138.55 181.447L117.609 189.995C116.198 191.988 114.434 193.52 112.464 194.464Z" fill="#9F796E"/>
<path d="M142.558 86.2052C147.561 85.008 152.434 88.9636 153.71 95.2596C158.259 117.717 167.969 166.29 167.095 167.568C165.957 169.232 121.307 190.302 121.307 190.302L115.253 176.206L144.365 154.906L134.896 101.073C133.694 94.2391 137.17 87.4946 142.558 86.2052Z" fill="#DCCBA1"/>
<path d="M53.8782 81.4104L56.3646 61.5545L39.5817 52.8179L37.0953 82.9989L53.8782 81.4104Z" fill="#FFD7CB"/>
<path d="M151.898 84.5356L149.411 64.6797L166.194 55.9431L168.681 86.1241L151.898 84.5356Z" fill="#9F796E"/>
<path d="M49.6371 67.9374C59.0892 67.9374 66.7517 58.1466 66.7517 46.0692C66.7517 33.9918 59.0892 24.201 49.6371 24.201C40.185 24.201 32.5226 33.9918 32.5226 46.0692C32.5226 58.1466 40.185 67.9374 49.6371 67.9374Z" fill="#FFD7CB"/>
<path d="M48.2713 16.6691C48.7665 17.0384 49.4299 16.4796 49.5886 15.7755C49.7474 15.0715 49.5625 14.324 49.379 13.6298L48.4556 10.1351C47.8007 7.65655 47.1056 5.09141 45.6873 3.20494C43.5465 0.35761 40.1442 -0.36674 37.0815 0.158026C33.1484 0.831925 29.2678 3.5532 27.439 8.05318C25.6103 12.5532 26.3888 18.8322 29.6933 21.6398C24.9837 28.5371 23.342 36.2239 23.6012 45.3713C23.8604 54.5188 31.662 62.9374 36.7497 69.3815C37.8859 68.5014 38.9188 64.3772 38.294 62.879C37.6692 61.3808 38.5644 59.6451 37.7906 58.265C37.0168 56.885 36.3694 59.0824 37.1517 57.7102C37.6453 56.8444 35.7187 54.8523 36.4525 54.3341C40.0015 51.8275 41.1819 46.1751 43.4109 41.8466C46.0995 36.6257 50.701 33.09 55.5706 32.5035C58.2531 32.1803 61.0865 32.7656 63.2852 34.7555C65.484 36.7454 66.9074 40.3013 66.3976 43.6819C67.718 41.9687 68.3754 39.458 68.1274 37.0745C67.8795 34.6909 66.7318 32.4868 65.107 31.2738C66.0949 27.0992 65.2486 22.2971 62.9554 19.0667C60.6623 15.8362 51.3602 16.3864 48.0124 17.2366" fill="#624339"/>
<path d="M47.7513 32.6301C43.3173 33.2417 40.1158 38.1494 37.4124 42.6816C35.8542 45.2939 34.222 48.1787 34.2611 51.4629C34.3007 54.7832 36.0381 57.6311 36.8684 60.7778C38.2256 65.9211 36.9029 72.0405 33.6721 75.5646C36.8645 76.3387 40.3155 73.2802 40.8666 69.1885C41.5082 64.4253 38.6823 59.8281 39.017 55.0138C39.3118 50.7723 41.9277 47.508 44.1516 44.3367C46.3755 41.1654 48.4641 36.9571 47.441 32.9046" fill="#624339"/>
<path d="M55.8172 78.0808L36.441 71.3094L16.4661 81.727L7.9054 168.193L56.8235 170.276V156.329C56.8235 156.329 65.3842 142.67 63.7536 122.876L62.123 103.083L55.8172 78.0808Z" fill="#DCCBA1"/>
<path d="M64.7727 113.24L26.4535 110.636L16.0584 148.399C16.0584 148.399 3.21741 171.057 1.17916 187.725C-0.859099 204.393 0.363853 227.833 0.363853 227.833H61.7105L56.8235 156.329C56.8235 156.329 68.2329 124.699 66.9105 119.23C65.588 113.761 64.7727 113.24 64.7727 113.24Z" fill="#272216"/>
<path d="M35.4219 71.5699H26.0459V115.844H35.4219V71.5699Z" fill="#272216"/>
<path d="M64.365 81.4666H54.989V117.928H64.365V81.4666Z" fill="#272216"/>
<path d="M149.144 82.2478L168.52 75.4764L188.495 85.894L197.055 172.36L148.137 174.443V160.496C148.137 160.496 143.133 146.238 147.934 127.304C152.622 108.813 142.838 107.25 142.838 107.25L149.144 82.2478Z" fill="#DCCBA1"/>
<path d="M140.188 117.407L178.507 114.803L188.902 152.566C188.902 152.566 195.221 178.35 197.259 195.018C199.297 211.686 204.597 232 204.597 232H143.25L141.411 163.244L140.188 117.407Z" fill="#272216"/>
<path d="M178.915 75.7369H169.539V120.011H178.915V75.7369Z" fill="#272216"/>
<path d="M149.972 85.6335H140.596V122.095H149.972V85.6335Z" fill="#272216"/>
<path d="M155.688 70.9764C167.526 70.9764 177.123 58.7139 177.123 43.5873C177.123 28.4608 167.526 16.1982 155.688 16.1982C143.85 16.1982 134.253 28.4608 134.253 43.5873C134.253 58.7139 143.85 70.9764 155.688 70.9764Z" fill="#9F796E"/>
<path d="M176.772 58.4453C176.772 58.4453 166.402 42.544 162.253 43.8691C158.105 45.1942 160.698 47.1819 160.698 47.1819L150.327 32.6057C150.327 32.6057 142.031 28.6304 134.253 41.2189C134.253 41.2189 129.586 30.618 134.253 24.655C138.919 18.692 140.475 19.3546 141.512 16.0418C142.549 12.729 149.809 10.0788 149.809 10.0788C149.809 10.0788 149.392 5.31051 151.674 7.69466C153.957 10.0788 159.657 10.0788 159.657 10.0788C159.657 10.0788 159.689 7.4286 162.008 10.0788C164.327 12.729 166.92 11.4039 166.92 11.4039C166.92 11.4039 166.92 15.9896 168.735 16.0157C170.55 16.0418 173.661 12.729 174.18 15.3793C174.698 18.0295 178.328 19.3546 178.846 27.3053C179.365 35.2559 176.772 58.4453 176.772 58.4453Z" fill="#624339"/>
<path d="M97.273 99.3249L113.869 139.413L111.594 140.951L94.998 100.863C94.7571 100.281 94.9313 99.5583 95.3867 99.2505L96.0114 98.8283C96.4668 98.5205 97.0321 98.743 97.273 99.3249Z" fill="#272216"/>
<path d="M124.922 154.563C120.7 153.172 116.282 155.635 114.164 160.505C111.511 166.602 108.48 171.604 109.495 159.682C110.612 146.558 104.586 135.958 109.322 132.757C114.057 129.556 118.947 139.284 126.644 148.091C133.777 156.254 129.664 156.125 124.922 154.563Z" fill="#272216"/>
<path d="M100.483 107.435C105.269 104.642 110.276 105.534 111.666 109.427C113.057 113.319 110.304 118.737 105.515 121.53C103.615 122.679 101.526 123.229 99.4248 123.136L79.0282 134.64L75.0071 122.295L95.5414 112.264C96.863 110.173 98.5573 108.517 100.483 107.435Z" fill="#FFD7CB"/>
<path d="M18.2885 77.192C14.1249 80.9328 12.9391 88.1523 15.5763 93.7149C24.9827 113.556 45.42 156.35 46.7465 156.442C48.4734 156.563 91.452 130.428 91.452 130.428L87.7805 115.048L55.5215 126.809L31.9684 80.5631C28.9783 74.6922 22.7728 73.163 18.2885 77.192Z" fill="#DCCBA1"/>
<path d="M102.522 169L157.655 131.736L164.423 148.084C170.261 162.186 166.04 179.692 155.004 187.151L139.865 197.383C128.828 204.843 115.128 199.45 109.29 185.348L102.522 169Z" fill="#624339"/>
<path d="M149.232 194.049C144.446 196.842 139.439 195.951 138.048 192.059C136.657 188.167 139.41 182.748 144.198 179.955C146.098 178.806 148.187 178.254 150.288 178.348L170.683 166.84L174.706 179.184L154.173 189.218C152.851 191.31 151.157 192.966 149.232 194.049Z" fill="#9F796E"/>
<path d="M190.713 83.8653C195.767 83.1004 200.422 87.4655 201.363 93.8568C204.722 116.654 211.855 165.951 210.916 167.151C209.693 168.713 164.036 185.902 164.036 185.902L158.736 171.318L188.902 152.566L182.287 98.0418C181.447 91.12 185.269 84.6892 190.713 83.8653Z" fill="#DCCBA1"/>
</g>
<defs>
<clipPath id="clip0_15_138">
<rect width="211" height="232" fill="white"/>
</clipPath>
</defs>
</svg>
