<svg width="400" height="453" viewBox="0 0 400 453" fill="none" xmlns="http://www.w3.org/2000/svg">
<g clip-path="url(#clip0_15_198)">
<path d="M170.518 307.182C170.518 307.182 223.639 297.406 242.231 281.928C260.823 266.45 398.938 259.119 398.938 307.182C398.938 355.245 240.106 376.425 240.106 376.425L156.707 369.093L170.518 307.182Z" fill="#FFD7CB"/>
<path opacity="0.1" d="M170.518 307.182C170.518 307.182 223.639 297.406 242.231 281.928C260.823 266.45 398.938 259.119 398.938 307.182C398.938 355.245 240.106 376.425 240.106 376.425L156.707 369.093L170.518 307.182Z" fill="#16140D"/>
<path d="M185.923 298.221L174.768 347.913L0 351.172V277.855C0 277.855 66.9323 254.231 120.053 304.738C120.053 304.738 182.736 293.333 185.923 298.221Z" fill="#3E2723"/>
<path opacity="0.1" d="M185.923 298.141L174.768 347.833L0 351.091V277.775C0 277.775 66.9323 254.151 120.053 304.658C120.053 304.658 182.736 293.253 185.923 298.141Z" fill="#16140D"/>
<path d="M385.736 277.448C385.736 280.224 381.676 282.285 381.276 284.964C380.88 287.62 383.293 291.66 382.529 294.197C381.74 296.791 380.808 299.277 379.743 301.627C378.743 303.823 375.654 303.502 374.388 305.561C373.148 307.431 371.834 309.183 370.454 310.807C369.11 312.521 367.29 312.88 365.761 314.458C364.308 315.958 364.484 321.462 362.877 322.828C361.341 324.133 358.99 323.083 357.323 324.257C355.724 325.383 354.881 329.457 353.171 330.453C351.522 331.414 349.482 331 347.738 331.832C346.051 332.638 344.164 332.507 342.396 333.185C340.679 333.843 339.368 337.79 337.582 338.322C335.842 338.84 333.803 337.458 332.004 337.85C330.247 338.234 328.204 334.824 326.396 335.082C324.627 335.334 322.96 336.913 321.148 337.041C319.372 337.166 317.616 338.365 315.803 338.365C313.992 338.365 312.122 340.972 310.346 340.847C308.534 340.72 306.894 336.768 305.125 336.516C303.317 336.258 301.161 340.385 299.404 340.002C297.605 339.609 296.18 335.569 294.44 335.051C292.654 334.518 290.347 337.406 288.63 336.747C286.862 336.069 285.812 331.369 284.125 330.564C282.382 329.732 280.221 330.859 278.572 329.898C276.862 328.902 274.779 329.062 273.18 327.935C271.514 326.762 270.318 323.985 268.782 322.679C267.174 321.313 266.433 317.925 264.98 316.424C263.452 314.846 261.123 315.048 259.779 313.333C258.36 311.524 255.702 311.429 254.504 309.482C253.238 307.423 252.725 303.965 251.725 301.769C250.672 299.456 252.739 294.567 252.004 292.122C251.241 289.586 248.051 288.555 247.655 285.899C247.247 283.125 247.037 280.291 247.03 277.448C247.03 274.671 249.758 272.549 250.158 269.871C250.554 267.215 248.546 263.399 249.309 260.862C250.044 258.418 249.95 254.66 251.004 252.347C252.004 250.151 254.499 249.29 255.766 247.231C256.963 245.284 259.106 244.741 260.525 242.932C261.869 241.218 261.698 236.049 263.226 234.471C264.679 232.971 266.708 232.286 268.316 230.92C269.851 229.615 272.025 229.834 273.691 228.661C275.29 227.535 277.795 229.754 279.505 228.758C281.154 227.797 282.491 225.697 284.234 224.865C285.921 224.06 286.714 217.918 288.482 217.24C290.199 216.581 292.311 217.674 294.097 217.142C295.837 216.624 298.178 221.47 299.977 221.077C301.734 220.693 303.048 214.224 304.856 213.966C306.625 213.714 308.619 217.064 310.431 216.937C312.208 216.812 313.991 218.775 315.803 218.775C317.615 218.775 319.421 216.08 321.197 216.205C323.008 216.333 324.606 219.894 326.375 220.146C328.182 220.404 330.401 214.988 332.158 215.372C333.958 215.764 335.348 219.951 337.088 220.47C338.874 221.002 341.111 218.402 342.828 219.061C344.596 219.739 345.66 224.189 347.348 224.994C349.091 225.827 350.165 228.966 351.813 229.927C353.523 230.923 356.7 226.261 358.299 227.388C359.965 228.561 361.404 230.592 362.94 231.898C364.548 233.264 367.103 232.577 368.556 234.077C370.084 235.655 370.46 239.891 371.804 241.605C373.223 243.415 375.564 243.96 376.761 245.907C378.028 247.967 378.204 251.656 379.204 253.852C380.257 256.165 380.224 259.369 380.959 261.814C381.722 264.35 383.759 266.269 384.155 268.925C384.554 271.603 385.736 274.672 385.736 277.448Z" fill="#4A2F27"/>
<path d="M194.422 328.362C194.422 328.362 254.449 281.113 293.227 299.035C332.005 316.957 386.189 286.001 392.563 296.591C398.938 307.181 407.968 421.229 331.474 427.746C254.98 434.263 189.641 408.195 189.641 408.195L194.422 328.362Z" fill="#FFD7CB"/>
<path d="M180.286 323.33C180.286 323.33 203.984 321.03 202.922 334.064C201.859 347.098 200.797 448.112 194.422 450.556C188.048 453 137.583 453 116.866 453H0V296.826C0 296.826 82.8685 289.26 124.303 321.03C124.303 321.03 174.118 319.927 180.286 323.33Z" fill="#3E2723"/>
<path d="M291.304 79.051C289.04 79.2472 286.856 80.4067 284.997 82.3997C283.139 84.3927 281.679 87.1403 280.781 90.3344C278.15 100.089 281.538 111.546 286.624 118.659C291.71 125.772 298.243 129.838 304.18 135.182C312.153 142.36 319.317 152.324 323.307 165.114C327.296 177.905 327.72 193.749 323.031 205.968C318.679 217.309 310.764 224.097 303.216 230.358" stroke="#4A2F27" stroke-miterlimit="10"/>
<path d="M312.553 19.5833C310.288 19.7794 308.104 20.939 306.246 22.9319C304.387 24.9249 302.927 27.6725 302.03 30.8666C299.398 40.6208 302.786 52.0786 307.872 59.1915C312.958 66.3043 319.492 70.37 325.428 75.714C333.401 82.892 340.566 92.8561 344.555 105.647C348.545 118.437 348.969 134.281 344.279 146.5C339.927 157.842 332.012 164.63 324.464 170.89" stroke="#4A2F27" stroke-miterlimit="10"/>
<path d="M382.416 33.2604C380.547 31.2897 378.357 30.1563 376.092 29.9872C373.826 29.8182 371.575 30.6202 369.59 32.3033C363.616 37.5458 361.721 49.7864 362.903 60.1855C364.086 70.5846 367.629 79.9329 370.189 89.7313C373.628 102.892 375.316 117.497 373.365 131.356C371.413 145.215 365.424 158.141 356.838 163.401C348.869 168.283 339.901 166.22 331.434 164.084" stroke="#4A2F27" stroke-miterlimit="10"/>
<path d="M320.85 156.196C327.891 156.196 333.599 151.944 333.599 146.7C333.599 141.455 327.891 137.204 320.85 137.204C313.809 137.204 308.101 141.455 308.101 146.7C308.101 151.944 313.809 156.196 320.85 156.196Z" fill="#B09D6D"/>
<path d="M319.256 154.567C326.297 154.567 332.005 150.315 332.005 145.071C332.005 139.826 326.297 135.574 319.256 135.574C312.215 135.574 306.507 139.826 306.507 145.071C306.507 150.315 312.215 154.567 319.256 154.567Z" stroke="#4A2F27" stroke-miterlimit="10"/>
<path d="M348.473 148.05C355.514 148.05 361.222 143.798 361.222 138.554C361.222 133.309 355.514 129.057 348.473 129.057C341.432 129.057 335.724 133.309 335.724 138.554C335.724 143.798 341.432 148.05 348.473 148.05Z" fill="#B09D6D"/>
<path d="M346.879 146.421C353.92 146.421 359.628 142.169 359.628 136.924C359.628 131.68 353.92 127.428 346.879 127.428C339.838 127.428 334.13 131.68 334.13 136.924C334.13 142.169 339.838 146.421 346.879 146.421Z" stroke="#4A2F27" stroke-miterlimit="10"/>
<path d="M352.722 183.894C359.764 183.894 365.471 179.642 365.471 174.397C365.471 169.153 359.764 164.901 352.722 164.901C345.681 164.901 339.973 169.153 339.973 174.397C339.973 179.642 345.681 183.894 352.722 183.894Z" fill="#B09D6D"/>
<path d="M351.129 182.264C358.17 182.264 363.878 178.013 363.878 172.768C363.878 167.523 358.17 163.272 351.129 163.272C344.088 163.272 338.38 167.523 338.38 172.768C338.38 178.013 344.088 182.264 351.129 182.264Z" stroke="#4A2F27" stroke-miterlimit="10"/>
<path d="M350.066 94.2845C357.107 94.2845 362.815 90.0329 362.815 84.7882C362.815 79.5436 357.107 75.292 350.066 75.292C343.025 75.292 337.317 79.5436 337.317 84.7882C337.317 90.0329 343.025 94.2845 350.066 94.2845Z" fill="#B09D6D"/>
<path d="M348.473 92.6551C355.514 92.6551 361.222 88.4035 361.222 83.1588C361.222 77.9142 355.514 73.6626 348.473 73.6626C341.432 73.6626 335.724 77.9142 335.724 83.1588C335.724 88.4035 341.432 92.6551 348.473 92.6551Z" stroke="#4A2F27" stroke-miterlimit="10"/>
<path d="M318.194 88.5821C325.235 88.5821 330.943 84.3305 330.943 79.0858C330.943 73.8412 325.235 69.5896 318.194 69.5896C311.153 69.5896 305.445 73.8412 305.445 79.0858C305.445 84.3305 311.153 88.5821 318.194 88.5821Z" fill="#B09D6D"/>
<path d="M316.6 86.9527C323.641 86.9527 329.349 82.7011 329.349 77.4564C329.349 72.2118 323.641 67.9602 316.6 67.9602C309.559 67.9602 303.851 72.2118 303.851 77.4564C303.851 82.7011 309.559 86.9527 316.6 86.9527Z" stroke="#4A2F27" stroke-miterlimit="10"/>
<path d="M332.537 68.2163C339.578 68.2163 345.286 63.9647 345.286 58.7201C345.286 53.4755 339.578 49.2239 332.537 49.2239C325.495 49.2239 319.788 53.4755 319.788 58.7201C319.788 63.9647 325.495 68.2163 332.537 68.2163Z" fill="#B09D6D"/>
<path d="M330.943 66.587C337.984 66.587 343.692 62.3353 343.692 57.0907C343.692 51.8461 337.984 47.5945 330.943 47.5945C323.902 47.5945 318.194 51.8461 318.194 57.0907C318.194 62.3353 323.902 66.587 330.943 66.587Z" stroke="#4A2F27" stroke-miterlimit="10"/>
<path d="M363.878 72.2893C370.919 72.2893 376.627 68.0377 376.627 62.7931C376.627 57.5485 370.919 53.2969 363.878 53.2969C356.837 53.2969 351.129 57.5485 351.129 62.7931C351.129 68.0377 356.837 72.2893 363.878 72.2893Z" fill="#B09D6D"/>
<path d="M362.284 70.6602C369.325 70.6602 375.033 66.4086 375.033 61.164C375.033 55.9193 369.325 51.6677 362.284 51.6677C355.243 51.6677 349.535 55.9193 349.535 61.164C349.535 66.4086 355.243 70.6602 362.284 70.6602Z" stroke="#4A2F27" stroke-miterlimit="10"/>
<path d="M387.251 99.1722C394.292 99.1722 400 94.9205 400 89.6759C400 84.4313 394.292 80.1797 387.251 80.1797C380.21 80.1797 374.502 84.4313 374.502 89.6759C374.502 94.9205 380.21 99.1722 387.251 99.1722Z" fill="#B09D6D"/>
<path d="M385.657 97.543C392.698 97.543 398.406 93.2914 398.406 88.0468C398.406 82.8021 392.698 78.5505 385.657 78.5505C378.616 78.5505 372.908 82.8021 372.908 88.0468C372.908 93.2914 378.616 97.543 385.657 97.543Z" stroke="#4A2F27" stroke-miterlimit="10"/>
<path d="M304.914 51.9239C311.955 51.9239 317.663 47.6723 317.663 42.4276C317.663 37.183 311.955 32.9314 304.914 32.9314C297.873 32.9314 292.165 37.183 292.165 42.4276C292.165 47.6723 297.873 51.9239 304.914 51.9239Z" fill="#B09D6D"/>
<path d="M303.32 50.2945C310.361 50.2945 316.069 46.0429 316.069 40.7982C316.069 35.5536 310.361 31.302 303.32 31.302C296.279 31.302 290.571 35.5536 290.571 40.7982C290.571 46.0429 296.279 50.2945 303.32 50.2945Z" stroke="#4A2F27" stroke-miterlimit="10"/>
<path d="M312.882 20.9678C319.923 20.9678 325.631 16.7162 325.631 11.4716C325.631 6.22695 319.923 1.97534 312.882 1.97534C305.841 1.97534 300.133 6.22695 300.133 11.4716C300.133 16.7162 305.841 20.9678 312.882 20.9678Z" fill="#B09D6D"/>
<path d="M311.288 19.3387C318.329 19.3387 324.037 15.0871 324.037 9.84243C324.037 4.5978 318.329 0.346191 311.288 0.346191C304.247 0.346191 298.539 4.5978 298.539 9.84243C298.539 15.0871 304.247 19.3387 311.288 19.3387Z" stroke="#4A2F27" stroke-miterlimit="10"/>
<path d="M386.72 43.7774C393.761 43.7774 399.469 39.5258 399.469 34.2811C399.469 29.0365 393.761 24.7849 386.72 24.7849C379.679 24.7849 373.971 29.0365 373.971 34.2811C373.971 39.5258 379.679 43.7774 386.72 43.7774Z" fill="#B09D6D"/>
<path d="M385.126 42.1482C392.167 42.1482 397.875 37.8966 397.875 32.652C397.875 27.4074 392.167 23.1558 385.126 23.1558C378.085 23.1558 372.377 27.4074 372.377 32.652C372.377 37.8966 378.085 42.1482 385.126 42.1482Z" stroke="#4A2F27" stroke-miterlimit="10"/>
<path d="M269.323 118.723C276.364 118.723 282.072 114.472 282.072 109.227C282.072 103.982 276.364 99.7307 269.323 99.7307C262.282 99.7307 256.574 103.982 256.574 109.227C256.574 114.472 262.282 118.723 269.323 118.723Z" fill="#B09D6D"/>
<path d="M267.729 117.094C274.77 117.094 280.478 112.842 280.478 107.598C280.478 102.353 274.77 98.1016 267.729 98.1016C260.688 98.1016 254.98 102.353 254.98 107.598C254.98 112.842 260.688 117.094 267.729 117.094Z" stroke="#4A2F27" stroke-miterlimit="10"/>
<path d="M313.413 113.835C320.454 113.835 326.162 109.584 326.162 104.339C326.162 99.0946 320.454 94.843 313.413 94.843C306.372 94.843 300.664 99.0946 300.664 104.339C300.664 109.584 306.372 113.835 313.413 113.835Z" fill="#B09D6D"/>
<path d="M311.819 112.206C318.86 112.206 324.568 107.955 324.568 102.71C324.568 97.4655 318.86 93.2139 311.819 93.2139C304.778 93.2139 299.07 97.4655 299.07 102.71C299.07 107.955 304.778 112.206 311.819 112.206Z" stroke="#4A2F27" stroke-miterlimit="10"/>
<path d="M371.315 121.167C378.356 121.167 384.064 116.915 384.064 111.671C384.064 106.426 378.356 102.175 371.315 102.175C364.274 102.175 358.566 106.426 358.566 111.671C358.566 116.915 364.274 121.167 371.315 121.167Z" fill="#B09D6D"/>
<path d="M369.721 119.538C376.762 119.538 382.47 115.286 382.47 110.042C382.47 104.797 376.762 100.545 369.721 100.545C362.68 100.545 356.972 104.797 356.972 110.042C356.972 115.286 362.68 119.538 369.721 119.538Z" stroke="#4A2F27" stroke-miterlimit="10"/>
<path d="M340.505 124.426C347.546 124.426 353.254 120.174 353.254 114.929C353.254 109.685 347.546 105.433 340.505 105.433C333.464 105.433 327.756 109.685 327.756 114.929C327.756 120.174 333.464 124.426 340.505 124.426Z" fill="#B09D6D"/>
<path d="M338.911 122.796C345.952 122.796 351.66 118.545 351.66 113.3C351.66 108.056 345.952 103.804 338.911 103.804C331.87 103.804 326.162 108.056 326.162 113.3C326.162 118.545 331.87 122.796 338.911 122.796Z" stroke="#4A2F27" stroke-miterlimit="10"/>
<path d="M342.629 42.9629C349.671 42.9629 355.378 38.7113 355.378 33.4667C355.378 28.2221 349.671 23.9705 342.629 23.9705C335.588 23.9705 329.88 28.2221 329.88 33.4667C329.88 38.7113 335.588 42.9629 342.629 42.9629Z" fill="#B09D6D"/>
<path d="M341.036 41.3335C348.077 41.3335 353.785 37.0819 353.785 31.8373C353.785 26.5927 348.077 22.3411 341.036 22.3411C333.995 22.3411 328.287 26.5927 328.287 31.8373C328.287 37.0819 333.995 41.3335 341.036 41.3335Z" stroke="#4A2F27" stroke-miterlimit="10"/>
<path d="M287.915 93.4698C294.956 93.4698 300.664 89.2182 300.664 83.9735C300.664 78.7289 294.956 74.4773 287.915 74.4773C280.874 74.4773 275.166 78.7289 275.166 83.9735C275.166 89.2182 280.874 93.4698 287.915 93.4698Z" fill="#B09D6D"/>
<path d="M286.321 91.8406C293.362 91.8406 299.07 87.589 299.07 82.3444C299.07 77.0998 293.362 72.8481 286.321 72.8481C279.28 72.8481 273.572 77.0998 273.572 82.3444C273.572 87.589 279.28 91.8406 286.321 91.8406Z" stroke="#4A2F27" stroke-miterlimit="10"/>
<path d="M295.352 130.128C302.393 130.128 308.101 125.876 308.101 120.632C308.101 115.387 302.393 111.135 295.352 111.135C288.311 111.135 282.603 115.387 282.603 120.632C282.603 125.876 288.311 130.128 295.352 130.128Z" fill="#B09D6D"/>
<path d="M293.758 128.499C300.799 128.499 306.507 124.247 306.507 119.003C306.507 113.758 300.799 109.506 293.758 109.506C286.717 109.506 281.009 113.758 281.009 119.003C281.009 124.247 286.717 128.499 293.758 128.499Z" stroke="#4A2F27" stroke-miterlimit="10"/>
<g opacity="0.3">
<path d="M295.648 185.472C297.448 180.534 297.777 175.562 296.382 174.367C294.988 173.172 292.398 176.206 290.599 181.144C288.799 186.082 288.471 191.054 289.865 192.249C291.26 193.444 293.849 190.41 295.648 185.472Z" fill="#B09D6D"/>
<path d="M294.808 186.219C296.608 181.281 296.936 176.309 295.542 175.114C294.147 173.918 291.558 176.953 289.758 181.891C287.959 186.829 287.63 191.8 289.025 192.996C290.419 194.191 293.008 191.157 294.808 186.219Z" stroke="#4A2F27" stroke-miterlimit="10"/>
</g>
<g opacity="0.3">
<path d="M362.102 209.145C363.167 207.319 361.803 202.781 359.054 199.009C356.305 195.236 353.214 193.658 352.148 195.483C351.083 197.309 352.447 201.847 355.196 205.619C357.945 209.392 361.037 210.97 362.102 209.145Z" fill="#B09D6D"/>
<path d="M361.811 207.724C362.876 205.898 361.512 201.36 358.763 197.588C356.014 193.815 352.922 192.237 351.857 194.062C350.792 195.888 352.156 200.426 354.905 204.198C357.654 207.971 360.746 209.549 361.811 207.724Z" stroke="#4A2F27" stroke-miterlimit="10"/>
</g>
<g opacity="0.3">
<path d="M302.607 157.823C303.672 155.997 302.307 151.459 299.559 147.687C296.81 143.914 293.718 142.336 292.653 144.161C291.587 145.987 292.952 150.525 295.701 154.297C298.449 158.07 301.541 159.648 302.607 157.823Z" fill="#B09D6D"/>
<path d="M302.316 156.402C303.381 154.576 302.016 150.038 299.268 146.266C296.519 142.493 293.427 140.915 292.362 142.74C291.296 144.566 292.661 149.104 295.41 152.876C298.158 156.649 301.25 158.227 302.316 156.402Z" stroke="#4A2F27" stroke-miterlimit="10"/>
</g>
</g>
<defs>
<clipPath id="clip0_15_198">
<rect width="400" height="453" fill="white"/>
</clipPath>
</defs>
</svg>
